<svg width="320" height="1217" viewBox="0 0 320 1217" fill="none" xmlns="http://www.w3.org/2000/svg">
<path d="M14.8505 96.5031C18.272 115.853 5.34647 114.288 -1.54398 111.087V348.691C-1.54397 395.125 -4.81995 1201.51 -1.5441 1214.59C0.444023 1222.52 17.7016 1181.65 14.8504 1172.76C11.9992 1163.87 6.29676 1131.35 18.7708 1127.8C31.2449 1124.24 33.0269 1116.06 39.4421 1105.74C45.8574 1095.43 62.2519 1075.15 102.169 1090.81C142.086 1106.46 168.46 1092.23 187.349 1078C224.771 1049.81 288.242 1078.14 305.881 1102.29C315.137 1114.96 289.886 1177.59 305.881 1183.64C313.872 1186.65 321 1242.13 321 1180.62L321 92.5903C320.762 95.1988 319.004 99.6331 313.872 96.5031C298.761 88.8201 304.962 65.3203 309.952 54.5309C312.684 44.2157 313.587 20.0284 295.339 5.80053C273.878 -10.9324 210.727 21.4513 174.091 21.4512C134.066 21.4511 114.643 12.2032 90.7642 3.66648C66.8853 -4.87022 47.9959 9.71322 40.5115 21.4512C33.027 33.1891 32.6707 37.8132 21.2658 43.1486C-1.18757 51.3296 10.5737 72.3157 14.8505 96.5031Z" fill="#FEF3E4" stroke="black"/>
</svg>
