<svg width="158" height="71" viewBox="0 0 158 71" fill="none" xmlns="http://www.w3.org/2000/svg">
<path d="M93.7677 35.4937C93.7677 36.0722 93.7499 36.6507 93.7677 37.2301C93.9647 43.1158 92.1351 48.4185 89.1974 53.4186C88.2125 55.0954 87.2711 56.8007 86.4229 58.5522C85.7229 59.9923 84.7504 61.0016 83.2376 61.5916C82.393 61.92 81.6095 62.4897 80.9015 63.0762C77.6416 65.7791 73.9435 67.7149 69.9881 69.0784C67.3609 69.9836 64.6556 70.7801 61.8013 70.7445C60.9504 70.7348 60.0977 70.9973 59.2451 71C58.3924 71.0026 57.5406 70.725 56.696 70.7615C53.0156 70.9199 49.6058 69.7824 46.2209 68.5889C42.5263 67.2877 39.2639 65.2318 36.1948 62.7816C31.8641 59.3257 28.7782 54.9726 26.5094 49.9894C25.2868 47.3033 24.2913 44.5309 24.01 41.5503C23.963 41.0554 23.7997 40.5659 23.6551 40.0862C22.6259 36.7424 23.2177 33.4636 23.8547 30.1323C24.3418 27.5842 24.8431 25.0672 25.7916 22.6481C28.299 16.2498 32.2811 11.0103 37.7963 6.89487C42.3941 3.46742 47.5403 1.36076 53.1354 0.455612C59.5556 -0.583035 65.8233 0.164577 71.9046 2.59165C74.939 3.80652 77.8022 5.34535 80.3026 7.38259C82.6352 9.28278 84.7389 11.506 86.7264 13.7782C88.5275 15.8377 89.806 18.2906 90.948 20.7933C92.7314 24.7032 93.8937 28.7501 93.7757 33.0978C93.7499 33.9015 93.7686 34.698 93.7677 35.4937ZM91.3029 27.5726C91.1254 26.2064 91.0145 24.6231 90.6818 23.0869C89.7342 18.6662 87.1851 15.2156 83.7877 12.3978C81.8588 10.7958 79.756 9.40382 77.6833 7.98781C76.9815 7.50809 76.1661 7.06753 75.3463 6.91979C73.239 6.52996 71.1078 6.16595 68.9722 6.05648C65.2652 5.8669 61.9353 4.90658 59.1368 2.31841C57.0766 0.414671 54.8336 0.230437 52.6926 1.90634C50.2659 3.80385 47.5039 4.91814 44.6886 6.02087C42.6257 6.82901 40.6391 7.84718 38.6552 8.8529C36.9978 9.69486 36.0324 11.0076 36.0555 12.9959C36.0688 14.1111 35.5595 15.043 34.5312 15.6606C33.673 16.1789 32.8488 16.7517 32.0637 17.3757C29.8695 19.1094 28.1597 21.0621 27.7906 24.0926C27.4987 26.4894 26.7765 28.8587 25.1404 30.8327C24.5937 31.512 24.2547 32.3354 24.1644 33.2037C24.0135 34.9953 24.0756 36.8083 24.12 38.6106C24.1324 39.0929 24.3409 39.61 24.5867 40.0346C25.1518 41.0376 25.7672 42.0114 26.4304 42.952C28.0364 45.194 29.433 47.4911 29.7559 50.3392C30.0682 53.0982 31.3956 55.3464 33.6413 57.0623C36.894 59.549 40.0296 62.1888 43.3311 64.6106C45.1056 65.9153 47.0052 67.0563 49.3459 67.3207C51.6865 67.585 53.9809 68.2249 56.0793 69.4086C56.5192 69.6466 57.0017 69.7951 57.4989 69.8456C60.4597 70.166 63.2005 69.43 65.8002 68.0389C66.6156 67.6028 67.4549 67.2067 68.2987 66.8276C70.3306 65.9144 72.5833 65.3146 74.3534 64.0427C76.3223 62.6249 78.4278 61.9957 80.6876 61.5996C81.6636 61.4279 82.4622 61.0238 83.0974 60.2949C83.856 59.4298 84.5579 58.5148 85.3484 57.6791C86.1656 56.8167 86.7556 55.8991 86.8985 54.67C87.1176 52.7858 87.9206 51.1224 88.9392 49.5239C90.664 46.8236 91.6445 43.8394 92.1546 40.6665C92.2886 39.8343 92.3649 39.1303 91.9541 38.3978C90.767 36.2841 91.2514 33.8837 90.8761 31.6337C90.6862 30.4171 91.1236 29.0865 91.3073 27.5699L91.3029 27.5726ZM77.0135 6.4552C76.5122 5.89894 76.3533 5.64707 76.1262 5.49131C75.7163 5.20651 75.2691 4.97422 74.8335 4.72768C71.1069 2.62013 67.0255 1.59572 62.8554 0.859677C62.0178 0.711045 61.1367 0.777797 60.2823 0.810727C60.0596 0.818738 59.7943 1.0359 59.6532 1.2317C59.5885 1.3207 59.734 1.63221 59.8573 1.78085C60.7849 2.89068 61.9947 3.72784 63.3584 4.20346C65.7126 5.05421 68.1876 5.52086 70.689 5.58566C71.7484 5.61503 72.8052 5.81617 73.8601 5.96035C74.7598 6.08851 75.6586 6.24249 77.0135 6.4552ZM45.3532 67.1934C42.852 65.141 40.6595 63.3067 38.4281 61.5213C36.5808 60.0439 34.6936 58.6163 32.8055 57.1914C32.5934 57.0312 32.2589 57.0356 31.7949 56.9155C34.0698 60.7497 41.6666 66.5748 45.3532 67.1934ZM28.5013 19.3008C30.0097 18.1438 31.4053 16.9262 32.9377 15.9187C35.0857 14.5134 35.9073 12.7663 35.3998 9.76695C33.8755 11.0183 32.7886 12.526 31.613 13.8957C30.3708 15.3402 29.4498 17.0606 28.4144 18.6778C28.3345 18.8086 28.4641 19.0667 28.5013 19.3008ZM79.3727 63.0584C77.9655 62.9614 76.5485 63.2106 75.6657 63.9733C73.9905 65.4196 71.9977 66.1467 69.9703 66.8703C68.9056 67.2495 67.9021 67.8066 66.8995 68.3379C66.7611 68.4109 66.7354 68.8016 66.7638 69.0322C66.7735 69.1096 67.1488 69.2369 67.3032 69.1843C69.1239 68.5613 71.0049 68.0594 72.7289 67.2263C74.8432 66.2081 76.828 64.9185 78.851 63.7223C79.063 63.6031 79.1748 63.3209 79.3727 63.0584ZM25.6142 43.0028C25.2096 44.1998 25.2894 44.8629 25.5441 45.5687C26.2494 47.5267 26.678 49.5933 27.9494 51.3039C28.4206 51.9385 28.5173 53.3572 29.3868 53.051C30.1525 52.784 29.2564 51.6608 29.204 50.9034C29.0035 48.01 27.4881 45.6782 25.6142 43.0028ZM39.263 6.97052L39.452 7.25621C40.5034 6.86461 41.5645 6.49436 42.6053 6.07517C44.8672 5.16439 47.1221 4.23669 49.3698 3.29209C49.8232 3.09985 50.2384 2.7919 50.6253 2.4804C50.7335 2.39139 50.714 2.09235 50.6803 1.90723C50.6626 1.82446 50.4487 1.73456 50.3254 1.72922C50.1145 1.73384 49.9054 1.7686 49.7043 1.83246C46.6486 2.70379 43.7667 3.99342 41.0091 5.55896C40.3641 5.92564 39.8406 6.49525 39.263 6.97052ZM92.9292 38.0454C93.1138 37.83 93.2584 37.7401 93.2682 37.6387C93.5663 34.4862 93.2336 31.3623 92.8032 28.2463C92.7819 28.0897 92.5655 27.8654 92.4182 27.8467C92.2558 27.8254 92.0029 27.9606 91.9044 28.1066C91.7426 28.3377 91.6418 28.6063 91.6116 28.8871C91.4495 31.4569 91.6183 34.037 92.1138 36.5635C92.2114 37.0735 92.632 37.5221 92.9292 38.0454ZM24.876 29.3464C26.0684 28.8898 26.2468 28.063 26.3746 27.3172C26.686 25.4971 27.465 23.7455 27.2077 21.8213C25.9611 24.1175 24.8547 26.444 24.876 29.3464ZM53.7369 69.3009C51.0636 68.1137 50.3387 67.9891 47.9591 68.3219C48.9679 68.7055 49.8756 69.3152 50.7886 69.325C51.7406 69.3392 52.7707 70.5096 53.7369 69.3009Z" fill="#2E2520"/>
<path d="M59.2495 45.6915C57.4217 45.6586 56.1663 44.8905 55.2364 43.4068C54.3704 42.0229 52.9295 41.3046 51.6102 40.452C49.9465 39.3777 48.5934 38.1655 48.2093 35.9877C47.9431 34.5111 48.2527 33.2286 48.8499 32.0627C49.3512 31.0881 50.2455 30.183 51.1852 29.6036C52.2037 28.9752 53.0484 28.3825 53.5187 27.2219C54.051 25.8869 55.3926 25.8059 56.5806 25.5656C57.6995 25.3395 58.8369 25.1945 59.9398 24.9114C61.4482 24.5252 62.8172 24.6444 63.9192 25.8237C64.771 26.7386 65.7656 27.3946 66.8747 27.9499C68.0281 28.5267 68.4087 29.2004 68.0476 30.4055C67.8019 31.2234 68.0396 31.7806 68.3431 32.4338C68.6749 33.1459 69.0165 33.8694 69.2446 34.6215C70.0041 37.1242 69.1301 39.2309 66.7913 40.3452C65.3415 41.0358 64.2315 41.9561 63.8704 43.5751C63.7258 44.2274 63.3203 44.5977 62.7471 44.7668C61.5901 45.1068 60.4163 45.3871 59.2495 45.6915ZM66.9226 35.1991C66.9598 30.79 63.6308 27.2646 59.3019 27.2593C55.4174 27.2593 51.5099 29.8982 51.3582 34.9553C51.2366 39.003 54.5949 42.7732 58.9727 42.7874C64.3043 42.8141 66.8188 39.0974 66.9226 35.1991ZM51.3156 39.4142C51.3156 38.8491 51.3697 38.5598 51.3076 38.299C50.7335 35.904 50.36 33.5321 51.6625 31.2252C51.7566 31.0597 51.5401 30.7179 51.4673 30.458C51.2118 30.5408 50.903 30.5577 50.7096 30.717C48.558 32.4899 47.5979 36.7469 51.3156 39.4142ZM59.3063 26.153C60.2069 26.4841 60.7206 26.7191 61.2583 26.865C63.2413 27.3919 64.9333 28.3389 66.1107 30.0851C66.3432 30.4286 66.6431 30.9395 67.0867 30.5479C67.3227 30.3388 67.3999 29.6997 67.2642 29.3802C67.0805 28.9557 66.6635 28.4261 66.2625 28.3424C65.1729 28.1137 64.5767 27.3216 63.8668 26.6309C62.6726 25.4802 61.339 25.1188 59.3063 26.153ZM59.1839 43.5083L59.1572 43.3419C58.5858 43.3419 58.0091 43.2929 57.4466 43.3623C57.1573 43.3979 56.8947 43.6445 56.6205 43.7958C56.8699 44.0174 57.0872 44.3663 57.3747 44.4384C58.9115 44.8273 60.4606 44.911 61.9761 44.3155C62.2352 44.2132 62.5235 44.0797 62.6859 43.8705C62.8296 43.6925 62.8767 43.3766 62.8474 43.1372C62.8358 43.0482 62.4774 42.9138 62.2999 42.9423C61.2592 43.106 60.2228 43.3125 59.1883 43.5056L59.1839 43.5083ZM67.0433 38.9861C68.108 38.7877 68.5835 38.1851 68.6457 37.2586C68.6916 36.4777 68.6804 35.6945 68.6119 34.9152C68.5951 34.7096 68.3094 34.5263 68.147 34.3322C67.9101 34.5574 67.4292 34.86 67.4727 34.9953C67.9048 36.3472 67.0015 37.5577 67.0433 38.9835V38.9861Z" fill="#2E2520"/>
<path d="M76.7828 45.0908C76.7215 45.1219 76.4749 45.3293 76.2078 45.3578C75.9647 45.3862 75.6098 45.3044 75.459 45.1335C74.7021 44.2764 73.9675 43.3953 73.2905 42.4741C73.113 42.2329 73.0403 41.5841 73.1414 41.528C73.4742 41.3438 74.1245 41.1516 74.2691 41.3109C75.1253 42.2587 75.8786 43.3009 76.6523 44.3227C76.7278 44.425 76.7047 44.6004 76.7828 45.0908Z" fill="#2E2520"/>
<path d="M40.5353 52.5144C40.931 52.5464 41.7127 52.5704 42.4749 52.7013C42.6647 52.7342 42.9185 53.1071 42.9185 53.3296C42.9185 53.5521 42.6994 53.9366 42.5095 53.9838C41.0277 54.3531 39.5531 54.4439 38.2417 53.4498C38.1677 53.3805 38.1103 53.2952 38.0742 53.2003C38.0381 53.1055 38.024 53.0036 38.0332 52.9024C38.0616 52.7538 38.2914 52.5464 38.4458 52.5357C39.0145 52.4877 39.585 52.5144 40.5353 52.5144Z" fill="#2E2520"/>
<path d="M86.9677 21.2161L87.5284 21.524C87.3696 21.8097 87.272 22.269 87.0405 22.3518C85.9735 22.7454 84.8788 23.0589 83.7655 23.2898C83.4452 23.353 82.9803 23.0371 82.6849 22.7763C82.3441 22.4746 82.5473 21.8195 82.9768 21.7537C84.2393 21.5588 85.5108 21.4092 86.9677 21.2161Z" fill="#2E2520"/>
<path d="M49.2509 58.8869C49.8436 59.1646 50.3396 59.2429 50.5818 59.5393C51.2451 60.3652 51.8519 61.2353 52.398 62.1434C52.6642 62.576 52.4211 63.0441 51.973 63.1687C51.7273 63.2373 51.2819 63.0361 51.1009 62.8127C50.3776 61.9387 49.7074 61.0218 49.0939 60.067C48.9519 59.8401 49.1719 59.3844 49.2509 58.8869Z" fill="#2E2520"/>
<path d="M72.5061 24.446C72.5434 24.1932 72.5061 23.9039 72.6242 23.7927C72.7839 23.6467 73.1263 23.5257 73.2905 23.6049C73.515 23.7126 73.6605 24.0081 73.8149 24.2404C74.2443 24.8865 74.6693 25.5362 75.0783 26.1984C75.2611 26.4948 75.5069 26.8107 75.522 27.1302C75.5397 27.4257 75.3605 27.8093 75.1387 28.0122C75.0153 28.1262 74.5069 28.0523 74.3818 27.8948C73.562 26.849 72.5789 25.87 72.5061 24.446Z" fill="#2E2520"/>
<path d="M75.057 13.335C74.8796 14.403 74.8086 15.1889 74.6019 15.9419C74.4723 16.3486 74.2253 16.7076 73.8921 16.9734C73.6569 17.1639 73.247 17.1363 72.9161 17.2057C72.8894 16.8951 72.7927 16.5711 72.8486 16.2765C73.0217 15.3669 73.2532 14.468 73.4608 13.5655C73.4768 13.4952 73.4724 13.4205 73.4928 13.3519C73.656 12.8072 74.0092 12.3925 74.5744 12.6177C74.8592 12.7316 74.9923 13.2309 75.057 13.335Z" fill="#2E2520"/>
<path d="M59.7588 20.2807C60.2574 20.343 60.9025 20.3768 61.5183 20.5263C61.7285 20.5771 62.0391 20.9571 62.0027 21.1209C61.9388 21.4137 61.6957 21.7991 61.4393 21.8863C61.0328 22.0136 60.5977 22.0158 60.19 21.8925C59.4802 21.6656 58.8192 21.5899 58.1112 21.8872C57.6462 22.083 57.2097 21.8774 57.0855 21.4128C56.9196 20.7898 57.3863 20.4881 57.9106 20.4C58.4696 20.3065 59.0472 20.3216 59.7588 20.2807Z" fill="#2E2520"/>
<path d="M70.8257 50.9649C70.6243 51.8486 70.4708 52.6238 70.2534 53.3813C70.2108 53.5299 69.8985 53.7301 69.7672 53.6963C69.5311 53.6385 69.1993 53.4516 69.1514 53.2575C69.0453 52.8385 69.0331 52.4011 69.1159 51.9768C69.2827 51.2007 69.4469 50.4638 69.1337 49.6708C68.9846 49.2907 69.0272 48.6846 69.6021 48.6864C69.9118 48.6864 70.3572 49.0709 70.4965 49.3886C70.7227 49.8968 70.7378 50.4949 70.8257 50.9649Z" fill="#2E2520"/>
<path d="M62.095 50.7379C61.9796 50.9453 61.9237 51.19 61.772 51.295C60.8377 51.9412 59.9017 52.59 58.9186 53.1552C58.6675 53.2994 58.2265 53.2104 57.9062 53.1151C57.4368 52.9754 57.3392 52.3559 57.7287 52.105C58.8041 51.4134 59.8857 50.7272 60.9939 50.09C61.1713 49.9876 61.5262 50.098 61.7552 50.2119C61.9104 50.2902 61.977 50.543 62.095 50.7379Z" fill="#2E2520"/>
<path d="M50.1914 9.21959C50.3431 9.30859 50.6288 9.38691 50.667 9.52753C51.0379 10.899 51.3954 12.275 51.69 13.6634C51.7716 14.0488 51.2632 14.2633 50.9225 14.0328C49.8498 13.3083 49.1817 10.6249 49.8072 9.50261C49.872 9.39136 50.0299 9.33529 50.1914 9.21959Z" fill="#2E2520"/>
<path d="M63.4472 13.1152C63.1242 12.8989 62.7755 12.7885 62.7285 12.6016C62.6779 12.3987 62.8447 12.0525 63.0257 11.8896C63.8129 11.1838 64.6362 10.5195 65.4923 9.89956C65.7807 9.69575 66.3796 9.55157 66.6014 9.71088C67.1249 10.0802 66.8498 10.6009 66.4852 10.9818C65.9954 11.4954 65.5092 12.0365 64.9449 12.4512C64.5119 12.7636 63.9565 12.898 63.4472 13.1152Z" fill="#2E2520"/>
<path d="M43.0498 20.3617L42.2655 21.1057C42.0419 20.8628 41.7101 20.6607 41.616 20.3706C41.2398 19.2349 40.9248 18.0788 40.6258 16.92C40.585 16.7607 40.7145 16.4349 40.8476 16.3798C41.065 16.2908 41.4226 16.2552 41.5876 16.3798C41.9132 16.6209 42.285 16.944 42.3915 17.3063C42.671 18.2497 42.8182 19.2358 43.0498 20.3617Z" fill="#2E2520"/>
<path d="M34.4629 39.3982C33.7433 40.7217 33.1967 42.0772 31.857 42.799C31.6316 42.92 31.133 42.7651 30.8916 42.572C30.4817 42.2454 30.8916 41.9739 31.0913 41.6954C31.7203 40.8267 32.3015 39.9207 32.9696 39.0849C33.1417 38.8704 33.5791 38.7645 33.8764 38.7939C34.0787 38.8126 34.2437 39.1579 34.4629 39.3982Z" fill="#2E2520"/>
<path d="M42.5911 39.5104C42.9664 39.7284 43.2388 39.7934 43.2894 39.9367C43.3728 40.1716 43.4163 40.541 43.2894 40.7039C43.0835 40.9637 42.7313 41.1133 42.4278 41.2877C41.6408 41.7407 40.8645 42.2187 40.0464 42.6049C39.7971 42.7224 39.3455 42.6868 39.1237 42.5284C38.6667 42.2018 38.8273 41.6784 39.1946 41.4479C40.3179 40.7421 41.4989 40.1245 42.5911 39.5104Z" fill="#2E2520"/>
<path d="M83.2704 33.517C82.9812 34.1712 82.5748 35.1582 82.093 36.1069C82.0185 36.2538 81.5518 36.3339 81.354 36.2458C81.1703 36.163 80.9698 35.7919 81.007 35.5907C81.2005 34.5361 81.4143 33.4778 81.7399 32.4597C81.8393 32.149 82.2882 31.8669 82.6334 31.7628C82.7612 31.7245 83.0957 32.2078 83.2545 32.5033C83.345 32.6697 83.2704 32.926 83.2704 33.517Z" fill="#2E2520"/>
<path d="M34.2375 25.6528C35.5107 26.7992 35.359 28.3558 35.5001 29.7932C35.5267 30.0602 35.1957 30.442 34.9313 30.6351C34.7929 30.7366 34.2304 30.5737 34.2171 30.4803C34.0166 29.0287 33.8622 27.569 33.7388 26.1076C33.7291 25.983 34.0281 25.8308 34.2375 25.6528Z" fill="#2E2520"/>
<path d="M63.9902 61.1493C64.2036 61.206 64.4137 61.2749 64.6192 61.3558C65.3841 61.7118 66.1533 62.058 66.8995 62.4496C67.2544 62.6347 67.6093 62.8661 67.8649 63.1616C68.1585 63.5043 67.8232 64.162 67.4124 64.0721C66.0247 63.7713 64.6689 63.3512 63.6308 62.3099C63.4773 62.1559 63.4809 61.7705 63.5306 61.5151C63.5599 61.3709 63.8278 61.2712 63.9902 61.1493Z" fill="#2E2520"/>
<path d="M47.1028 26.072C47.1765 26.3025 47.4285 26.6603 47.3397 26.8846C46.8739 28.0728 46.3345 29.2334 45.7853 30.3859C45.7178 30.5274 45.4304 30.6529 45.26 30.6298C45.1109 30.6111 44.9051 30.4011 44.8661 30.2417C44.575 28.9574 45.4925 26.6585 46.5155 26.08C46.6211 26.0204 46.7896 26.072 47.1028 26.072Z" fill="#2E2520"/>
<path d="M86.7822 45.5714C86.6225 45.4699 86.2898 45.3462 86.1168 45.1068C86.0476 45.0115 86.2712 44.5772 86.4637 44.4384C87.3173 43.8154 88.1886 43.2199 89.0971 42.6877C89.342 42.5444 89.8513 42.5337 90.0314 42.6948C90.1973 42.8443 90.2222 43.4068 90.0722 43.6133C89.311 44.6778 88.3509 45.4895 86.7822 45.5714Z" fill="#2E2520"/>
<path d="M81.5101 54.7367C80.8518 54.6682 80.5652 54.6611 80.291 54.5997C80.1748 54.5739 80.0018 54.4359 80 54.346C79.9877 54.1435 80.0402 53.9424 80.1499 53.772C80.2912 53.611 80.4762 53.495 80.6823 53.4382C81.6973 53.132 82.7132 52.825 83.7434 52.5767C83.967 52.5233 84.4381 52.671 84.4674 52.7992C84.5348 53.1036 84.4541 53.4711 84.3352 53.7782C84.2722 53.9402 84.0211 54.0755 83.8285 54.1342C82.9466 54.3772 82.0611 54.5943 81.5101 54.7367Z" fill="#2E2520"/>
<path d="M50.9465 47.3808C50.8737 47.6914 50.7557 48.3794 50.5277 49.0282C50.4709 49.1893 50.0273 49.3441 49.8232 49.2854C49.6191 49.2267 49.3796 48.8893 49.3858 48.6784C49.4071 47.4778 49.4665 46.2754 49.5881 45.0801C49.6138 44.8193 49.943 44.5897 50.1329 44.3458C50.36 44.587 50.7282 44.7997 50.7859 45.0765C50.9145 45.696 50.887 46.3475 50.9465 47.3808Z" fill="#2E2520"/>
<path d="M98.5134 9.81221C98.5134 7.26875 99.1264 5.3402 100.352 4.02655C101.592 2.69892 103.181 2.03511 105.117 2.03511C107.054 2.03511 108.593 2.60808 109.735 3.75404C110.892 4.89999 111.47 6.73071 111.47 9.24622C111.47 11.7617 110.857 13.6623 109.631 14.948C108.405 16.2337 106.768 16.8766 104.72 16.8766C102.951 16.8766 101.502 16.3665 100.373 15.3463C99.7881 14.8153 99.3284 14.0816 98.994 13.1452C98.6736 12.1949 98.5134 11.0839 98.5134 9.81221ZM105.054 2.24474C103.647 2.24474 102.491 2.87361 101.585 4.13136C100.694 5.38911 100.248 7.23382 100.248 9.66547C100.248 12.0971 100.673 13.8719 101.523 14.9899C102.372 16.108 103.501 16.667 104.908 16.667C106.329 16.667 107.485 16.0381 108.377 14.7803C109.283 13.5086 109.735 11.6709 109.735 9.26718C109.735 6.8495 109.304 5.07468 108.44 3.9427C107.59 2.81072 106.461 2.24474 105.054 2.24474Z" fill="#2E2520"/>
<path d="M115.084 16.7927H113.35V2.11896H115.084V8.86889H121.876V2.11896H123.611V16.7927H121.876V9.07852H115.084V16.7927Z" fill="#2E2520"/>
<path d="M132.527 16.7927H132.255L134.073 2.11896H134.763L139.151 15.6817L143.519 2.11896H144.209L146.027 16.7927H144.292L142.85 5.05371L139.068 16.7927H137.751L133.927 5.20045L132.527 16.7927Z" fill="#2E2520"/>
<path d="M157.603 2.11896C157.868 2.38448 158 2.72687 158 3.14612C158 3.4955 157.923 3.85186 157.77 4.21521L154.029 11.8246V16.7927H152.295V12.2858L148.115 2.11896H149.892L153.883 11.5731L157.519 4.21521C157.673 3.86584 157.749 3.50249 157.749 3.12516C157.749 2.74784 157.645 2.45436 157.436 2.24474L157.603 2.11896Z" fill="#2E2520"/>
<path d="M2.94608 20.6483C4.02631 20.599 5.08198 20.5744 6.11311 20.5744C7.16879 20.5744 8.27357 20.6852 9.42745 20.9069C10.6059 21.1285 11.7598 21.5471 12.8891 22.1628C14.043 22.7539 15.0127 23.5296 15.7983 24.49C16.6085 25.4259 17.2591 26.6695 17.7501 28.221C18.2411 29.7725 18.4866 31.6564 18.4866 33.8728C18.4866 36.0892 18.1184 38.084 17.3819 39.8571C16.6699 41.6056 15.6879 42.9478 14.4358 43.8836C12.0053 45.706 9.07146 46.6171 5.63437 46.6171C4.43139 46.6171 3.16703 46.5679 1.8413 46.4694H0V20.6483H2.94608ZM3.05655 46.1739C3.57212 46.2231 4.22271 46.2477 5.00833 46.2477C5.79395 46.2477 6.38317 46.2354 6.77598 46.2108C7.16879 46.1862 7.7089 46.0877 8.39632 45.9153C9.08374 45.7183 9.72205 45.4597 10.3113 45.1395C10.9005 44.8194 11.5142 44.3515 12.1526 43.7358C12.8154 43.0955 13.3801 42.3444 13.8466 41.4825C14.9022 39.4631 15.4301 36.828 15.4301 33.5773C15.4301 31.2624 15.1477 29.2676 14.5831 27.593C14.0184 25.8938 13.3678 24.6378 12.6313 23.8251C11.9193 23.0124 11.0478 22.3721 10.0167 21.9042C8.98553 21.4117 8.16309 21.1285 7.54932 21.0546C6.93556 20.9807 6.22359 20.9438 5.41342 20.9438C4.60324 20.9438 3.81762 20.9807 3.05655 21.0546V46.1739Z" fill="#2E2520"/>
<path d="M99.1112 46.4694H98.6324V20.6113H99.8845L115.204 44.5116V20.6113H115.683V46.4694H112.995L99.1112 25.0441V46.4694Z" fill="#2E2520"/>
<path d="M138.359 20.6113H138.838V35.3874C138.838 39.2538 138.077 42.0981 136.555 43.9205C135.033 45.7183 133.044 46.6171 130.589 46.6171C129.042 46.6171 127.729 46.4817 126.649 46.2108C125.568 45.9153 124.55 45.3858 123.592 44.6224C121.628 43.0955 120.646 40.0172 120.646 35.3874V20.6113H123.703V35.3504C123.703 39.8325 124.378 42.8246 125.728 44.3269C126.415 45.0657 127.127 45.5705 127.864 45.8414C128.625 46.1123 129.533 46.2477 130.589 46.2477C132.946 46.2477 134.824 45.3858 136.223 43.6619C137.647 41.9134 138.359 39.1429 138.359 35.3504V20.6113Z" fill="#2E2520"/>
<path d="M151.401 46.4694H148.344V20.9807H141.973V20.6113H157.809V20.9807H151.401V46.4694Z" fill="#2E2520"/>
</svg>
