<!-- Generated by IcoMoon.io -->
<svg version="1.1" xmlns="http://www.w3.org/2000/svg" width="47" height="32" viewBox="0 0 47 32">
<title>chat</title>
<path fill="#674d40" d="M35.987 13.842c0-8.361-8.814-13.842-17.614-13.842-8.835 0-17.613 5.506-17.613 13.842 0 3.154 1.381 6.237 3.889 8.684 0.096 0.094 0.133 0.236 0.096 0.371-0.788 2.886-2.654 5.493-3.419 6.48-0.238 0.307-0.277 0.713-0.102 1.060 0.171 0.339 0.51 0.547 0.888 0.547 0.009 0 0.017-0 0.026-0 3.746-0.093 8.089-1.151 10.773-3.79 0.094-0.092 0.228-0.129 0.36-0.097 1.649 0.391 3.366 0.589 5.103 0.589 8.832-0 17.614-5.504 17.614-13.842zM13.58 25.79c-0.583-0.138-1.185 0.028-1.61 0.446-2.684 2.639-7.067 3.239-9.142 3.372 0.948-1.308 2.489-3.711 3.211-6.359 0.165-0.605-0.009-1.25-0.453-1.684-2.279-2.223-3.484-4.894-3.484-7.723 0-6.893 7.3-12.501 16.272-12.501s16.272 5.608 16.272 12.501c0 6.893-7.3 12.501-16.272 12.501-1.633 0-3.245-0.186-4.793-0.553z"></path>
<path fill="#674d40" d="M40.3 24.986c3.91-1.976 6.245-5.344 6.245-9.010 0-5.18-4.683-9.607-11.135-10.525-0.366-0.052-0.706 0.203-0.759 0.569s0.203 0.706 0.569 0.758c5.784 0.823 9.983 4.692 9.983 9.198 0 3.149-2.059 6.070-5.509 7.813-0.671 0.339-1.030 1.088-0.874 1.823 0.327 1.537 1.023 2.96 1.58 3.924-3.961-0.659-5.462-2.56-5.937-3.382-0.293-0.508-0.841-0.823-1.432-0.823-0.002 0-0.004 0-0.005 0l-0.049 0c-0.744 0-1.488-0.052-2.213-0.153-0.366-0.052-0.706 0.204-0.758 0.571s0.204 0.706 0.571 0.758c0.786 0.11 1.594 0.166 2.4 0.166l0.056-0c0.112 0 0.215 0.058 0.269 0.152 1.816 3.148 5.992 3.952 7.703 4.151 0.378 0.044 0.738-0.129 0.94-0.452s0.199-0.721-0.007-1.041c-0.515-0.803-1.435-2.409-1.806-4.15-0.030-0.139 0.039-0.282 0.167-0.346z"></path>
<path fill="#674d40" d="M7.937 11.443c-1.282 0-2.324 1.043-2.324 2.324s1.043 2.324 2.324 2.324 2.324-1.043 2.324-2.324c0-1.282-1.043-2.324-2.324-2.324zM7.937 14.751c-0.542 0-0.983-0.441-0.983-0.983s0.441-0.983 0.983-0.983c0.542 0 0.983 0.441 0.983 0.983s-0.441 0.983-0.983 0.983z"></path>
<path fill="#674d40" d="M14.568 11.443c-1.282 0-2.324 1.043-2.324 2.324s1.043 2.324 2.324 2.324 2.325-1.043 2.325-2.324c0-1.282-1.043-2.324-2.325-2.324zM14.568 14.751c-0.542 0-0.983-0.441-0.983-0.983s0.441-0.983 0.983-0.983c0.542 0 0.983 0.441 0.983 0.983s-0.441 0.983-0.983 0.983z"></path>
<path fill="#674d40" d="M21.199 11.443c-1.282 0-2.324 1.043-2.324 2.324s1.043 2.324 2.324 2.324 2.325-1.043 2.325-2.324c0-1.282-1.043-2.324-2.325-2.324zM21.199 14.751c-0.542 0-0.983-0.441-0.983-0.983s0.441-0.983 0.983-0.983c0.542 0 0.983 0.441 0.983 0.983s-0.441 0.983-0.983 0.983z"></path>
<path fill="#674d40" d="M27.83 11.443c-1.282 0-2.325 1.043-2.325 2.324s1.043 2.324 2.325 2.324 2.324-1.043 2.324-2.324c0-1.282-1.043-2.324-2.324-2.324zM27.83 14.751c-0.542 0-0.983-0.441-0.983-0.983s0.441-0.983 0.983-0.983c0.542 0 0.983 0.441 0.983 0.983s-0.441 0.983-0.983 0.983z"></path>
</svg>
