<!-- Generated by IcoMoon.io -->
<svg version="1.1" xmlns="http://www.w3.org/2000/svg" width="35" height="32" viewBox="0 0 35 32">
<title>chef-hat</title>
<path fill="#674d40" d="M25.046 8.507c-0.13 0-0.254-0.052-0.346-0.143s-0.143-0.216-0.143-0.346c-0.038-1.875-0.809-3.66-2.149-4.973s-3.14-2.048-5.015-2.048c-1.875 0-3.676 0.735-5.015 2.048s-2.111 3.098-2.149 4.973c0 0.13-0.052 0.254-0.143 0.346s-0.216 0.143-0.346 0.143c-0.13 0-0.254-0.052-0.346-0.143s-0.143-0.216-0.143-0.346c0.033-2.138 0.906-4.177 2.429-5.677s3.576-2.341 5.714-2.341c2.138 0 4.19 0.841 5.714 2.341s2.396 3.539 2.429 5.677c0 0.13-0.051 0.254-0.143 0.346s-0.216 0.143-0.346 0.143z"></path>
<path fill="#674d40" d="M26.474 19.581c-0.13 0.001-0.255-0.050-0.347-0.141s-0.145-0.215-0.145-0.345c-0.001-0.13 0.050-0.255 0.141-0.347s0.215-0.145 0.345-0.145c1.864-0.011 3.649-0.753 4.971-2.066s2.077-3.093 2.101-4.957c-0.019-1.882-0.783-3.68-2.125-4.999s-3.153-2.052-5.035-2.038c-0.723-0.001-1.441 0.105-2.132 0.316-0.123 0.036-0.256 0.022-0.369-0.039s-0.198-0.164-0.235-0.287c-0.038-0.123-0.025-0.256 0.034-0.37s0.161-0.2 0.284-0.239c0.784-0.239 1.599-0.36 2.419-0.359 2.142-0.014 4.201 0.823 5.727 2.325s2.393 3.549 2.412 5.691c-0.025 2.121-0.881 4.147-2.385 5.644s-3.534 2.343-5.655 2.358h-0.006z"></path>
<path fill="#674d40" d="M8.308 19.581h-0.006c-2.121-0.015-4.151-0.862-5.655-2.358s-2.36-3.523-2.385-5.644c0.019-2.141 0.886-4.188 2.412-5.691s3.585-2.339 5.727-2.325c0.82-0.001 1.635 0.12 2.419 0.359 0.062 0.018 0.12 0.048 0.171 0.089s0.092 0.091 0.123 0.148c0.031 0.057 0.050 0.12 0.056 0.184s-0 0.13-0.019 0.192c-0.019 0.062-0.050 0.12-0.092 0.17s-0.092 0.091-0.15 0.121c-0.058 0.030-0.12 0.048-0.185 0.054s-0.13-0.002-0.191-0.022c-0.691-0.211-1.41-0.317-2.132-0.316-1.882-0.014-3.693 0.719-5.035 2.038s-2.106 3.117-2.125 4.999c0.024 1.864 0.779 3.643 2.101 4.957s3.108 2.055 4.971 2.066c0.064 0 0.128 0.013 0.187 0.038s0.113 0.061 0.158 0.107c0.045 0.046 0.081 0.1 0.105 0.159s0.037 0.123 0.036 0.188c-0 0.064-0.013 0.128-0.038 0.187s-0.061 0.113-0.107 0.158c-0.046 0.045-0.1 0.081-0.159 0.105s-0.123 0.037-0.188 0.036z"></path>
<path fill="#674d40" d="M26.474 31.756h-18.166c-0.13 0-0.254-0.052-0.346-0.143s-0.143-0.216-0.143-0.346v-12.174c0-0.13 0.052-0.254 0.143-0.346s0.216-0.143 0.346-0.143 0.254 0.052 0.346 0.143c0.092 0.092 0.143 0.216 0.143 0.346v11.684h17.187v-11.684c0-0.13 0.052-0.254 0.143-0.346s0.216-0.143 0.346-0.143 0.254 0.052 0.346 0.143c0.092 0.092 0.143 0.216 0.143 0.346v12.174c0 0.13-0.051 0.254-0.143 0.346s-0.216 0.143-0.346 0.143z"></path>
<path fill="#674d40" d="M29.88 27.014h-18.166c-0.13 0-0.254-0.051-0.346-0.143s-0.143-0.216-0.143-0.346 0.052-0.254 0.143-0.346c0.092-0.092 0.216-0.143 0.346-0.143h18.166c0.13 0 0.254 0.052 0.346 0.143s0.143 0.216 0.143 0.346-0.051 0.254-0.143 0.346c-0.092 0.092-0.216 0.143-0.346 0.143z"></path>
</svg>
