<!-- Generated by IcoMoon.io -->
<svg version="1.1" xmlns="http://www.w3.org/2000/svg" width="32" height="32" viewBox="0 0 32 32">
<title>clock</title>
<path fill="#674d40" d="M16 0c-8.822 0-16 7.178-16 16s7.178 16 16 16c8.822 0 16-7.178 16-16s-7.178-16-16-16zM16 30.933c-8.234 0-14.933-6.699-14.933-14.933s6.699-14.933 14.933-14.933c8.234 0 14.933 6.699 14.933 14.933s-6.699 14.933-14.933 14.933z"></path>
<path fill="#674d40" d="M16.533 13.878v-5.409c0-0.295-0.239-0.533-0.533-0.533s-0.533 0.238-0.533 0.533v5.409c-0.746 0.194-1.33 0.778-1.524 1.524h-3.809c-0.294 0-0.533 0.238-0.533 0.533s0.239 0.533 0.533 0.533h3.809c0.238 0.917 1.067 1.6 2.058 1.6 1.177 0 2.133-0.957 2.133-2.133 0-0.992-0.683-1.819-1.6-2.058zM16 17.002c-0.588 0-1.067-0.478-1.067-1.067s0.478-1.067 1.067-1.067c0.588 0 1.067 0.478 1.067 1.067s-0.478 1.067-1.067 1.067z"></path>
<path fill="#674d40" d="M16 5.269c0.294 0 0.533-0.238 0.533-0.533v-0.533c0-0.295-0.239-0.533-0.533-0.533s-0.533 0.238-0.533 0.533v0.533c0 0.295 0.239 0.533 0.533 0.533z"></path>
<path fill="#674d40" d="M16 26.602c-0.294 0-0.533 0.238-0.533 0.533v0.533c0 0.295 0.239 0.533 0.533 0.533s0.533-0.238 0.533-0.533v-0.533c0-0.295-0.239-0.533-0.533-0.533z"></path>
<path fill="#674d40" d="M27.733 15.402h-0.533c-0.294 0-0.533 0.238-0.533 0.533s0.239 0.533 0.533 0.533h0.533c0.294 0 0.533-0.238 0.533-0.533s-0.239-0.533-0.533-0.533z"></path>
<path fill="#674d40" d="M4.8 15.402h-0.533c-0.294 0-0.533 0.238-0.533 0.533s0.239 0.533 0.533 0.533h0.533c0.294 0 0.533-0.238 0.533-0.533s-0.239-0.533-0.533-0.533z"></path>
<path fill="#674d40" d="M23.919 7.262l-0.377 0.377c-0.209 0.209-0.209 0.546 0 0.754 0.104 0.104 0.241 0.156 0.377 0.156s0.273-0.052 0.377-0.156l0.377-0.377c0.209-0.209 0.209-0.546 0-0.754s-0.546-0.208-0.754 0z"></path>
<path fill="#674d40" d="M7.703 23.478l-0.377 0.377c-0.209 0.209-0.209 0.546 0 0.754 0.104 0.104 0.241 0.156 0.377 0.156s0.273-0.052 0.377-0.156l0.377-0.377c0.209-0.209 0.209-0.546 0-0.754s-0.546-0.208-0.754 0z"></path>
<path fill="#674d40" d="M24.297 23.478c-0.209-0.209-0.546-0.209-0.754 0s-0.209 0.546 0 0.754l0.377 0.377c0.104 0.104 0.241 0.156 0.377 0.156s0.273-0.052 0.377-0.156c0.209-0.209 0.209-0.546 0-0.754l-0.377-0.377z"></path>
<path fill="#674d40" d="M8.081 7.261c-0.209-0.209-0.546-0.209-0.754 0s-0.209 0.546 0 0.754l0.377 0.377c0.104 0.104 0.241 0.156 0.377 0.156s0.273-0.052 0.377-0.156c0.209-0.209 0.209-0.546 0-0.754l-0.377-0.377z"></path>
</svg>
