<!-- Generated by IcoMoon.io -->
<svg version="1.1" xmlns="http://www.w3.org/2000/svg" width="71" height="32" viewBox="0 0 71 32">
<title>logo</title>
<path d="M42.261 15.997c0 0.261-0.008 0.521 0 0.783 0.089 2.653-0.736 5.043-2.060 7.296-0.444 0.756-0.868 1.524-1.25 2.314-0.316 0.649-0.754 1.104-1.436 1.37-0.381 0.148-0.734 0.405-1.053 0.669-1.469 1.218-3.136 2.091-4.919 2.705-1.184 0.408-2.403 0.767-3.69 0.751-0.384-0.004-0.768 0.114-1.152 0.115s-0.768-0.124-1.149-0.108c-1.659 0.071-3.196-0.441-4.721-0.979-1.665-0.586-3.136-1.513-4.519-2.617-1.952-1.558-3.343-3.52-4.365-5.765-0.551-1.211-1-2.46-1.127-3.804-0.021-0.223-0.095-0.444-0.16-0.66-0.464-1.507-0.197-2.985 0.090-4.486 0.22-1.148 0.445-2.283 0.873-3.373 1.13-2.884 2.925-5.245 5.411-7.1 2.072-1.545 4.392-2.494 6.913-2.902 2.894-0.468 5.718-0.131 8.459 0.963 1.368 0.548 2.658 1.241 3.785 2.159 1.051 0.856 1.999 1.858 2.895 2.883 0.812 0.928 1.388 2.034 1.903 3.162 0.804 1.762 1.328 3.586 1.274 5.546-0.012 0.362-0.003 0.721-0.004 1.080zM41.151 12.427c-0.080-0.616-0.13-1.329-0.28-2.022-0.427-1.992-1.576-3.548-3.107-4.818-0.869-0.722-1.817-1.349-2.751-1.988-0.316-0.216-0.684-0.415-1.053-0.481-0.95-0.176-1.91-0.34-2.873-0.389-1.671-0.085-3.172-0.518-4.433-1.685-0.929-0.858-1.939-0.941-2.904-0.186-1.094 0.855-2.339 1.357-3.607 1.854-0.93 0.364-1.825 0.823-2.719 1.276-0.747 0.379-1.182 0.971-1.172 1.867 0.006 0.503-0.224 0.923-0.687 1.201-0.387 0.234-0.758 0.492-1.112 0.773-0.989 0.781-1.76 1.661-1.926 3.027-0.132 1.080-0.457 2.148-1.194 3.038-0.246 0.306-0.399 0.677-0.44 1.069-0.068 0.807-0.040 1.625-0.020 2.437 0.006 0.217 0.1 0.45 0.21 0.642 0.255 0.452 0.532 0.891 0.831 1.315 0.724 1.010 1.353 2.046 1.499 3.329 0.141 1.244 0.739 2.257 1.751 3.030 1.466 1.121 2.879 2.311 4.367 3.402 0.8 0.588 1.656 1.102 2.711 1.221s2.089 0.408 3.035 0.941c0.198 0.107 0.416 0.174 0.64 0.197 1.334 0.144 2.57-0.187 3.741-0.814 0.367-0.197 0.746-0.375 1.126-0.546 0.916-0.412 1.931-0.682 2.729-1.255 0.887-0.639 1.836-0.923 2.855-1.101 0.44-0.077 0.8-0.259 1.086-0.588 0.342-0.39 0.658-0.802 1.015-1.179 0.368-0.389 0.634-0.802 0.699-1.356 0.099-0.849 0.461-1.599 0.92-2.319 0.777-1.217 1.219-2.562 1.449-3.992 0.060-0.375 0.095-0.692-0.090-1.023-0.535-0.953-0.317-2.035-0.486-3.049-0.086-0.548 0.112-1.148 0.194-1.832l-0.002 0.001zM34.71 2.909c-0.226-0.251-0.298-0.364-0.4-0.434-0.185-0.128-0.386-0.233-0.583-0.344-1.68-0.95-3.519-1.412-5.399-1.743-0.378-0.067-0.775-0.037-1.16-0.022-0.1 0.004-0.22 0.102-0.284 0.19-0.029 0.040 0.036 0.18 0.092 0.248 0.418 0.5 0.963 0.878 1.578 1.092 1.061 0.383 2.177 0.594 3.304 0.623 0.477 0.013 0.954 0.104 1.429 0.169 0.406 0.058 0.811 0.127 1.421 0.223zM20.441 30.284c-1.127-0.925-2.115-1.752-3.121-2.556-0.833-0.666-1.683-1.309-2.534-1.951-0.096-0.072-0.246-0.070-0.455-0.124 1.025 1.728 4.449 4.354 6.111 4.632zM12.846 8.699c0.68-0.521 1.309-1.070 1.999-1.524 0.968-0.633 1.338-1.421 1.11-2.773-0.687 0.564-1.177 1.244-1.707 1.861-0.56 0.651-0.975 1.426-1.442 2.155-0.036 0.059 0.022 0.175 0.039 0.281zM35.774 28.421c-0.634-0.044-1.273 0.069-1.671 0.412-0.755 0.652-1.653 0.98-2.567 1.306-0.48 0.171-0.932 0.422-1.384 0.661-0.062 0.033-0.074 0.209-0.061 0.313 0.004 0.035 0.174 0.092 0.243 0.069 0.821-0.281 1.668-0.507 2.445-0.882 0.953-0.459 1.847-1.040 2.759-1.579 0.096-0.054 0.146-0.181 0.235-0.299zM11.544 19.382c-0.182 0.54-0.146 0.838-0.032 1.156 0.318 0.882 0.511 1.814 1.084 2.585 0.212 0.286 0.256 0.925 0.648 0.787 0.345-0.12-0.059-0.627-0.082-0.968-0.090-1.304-0.773-2.355-1.618-3.561zM17.696 3.142l0.085 0.129c0.474-0.176 0.952-0.343 1.421-0.532 1.019-0.41 2.036-0.829 3.049-1.254 0.204-0.087 0.391-0.225 0.566-0.366 0.049-0.040 0.040-0.175 0.025-0.258-0.008-0.037-0.104-0.078-0.16-0.080-0.095 0.002-0.189 0.018-0.28 0.047-1.377 0.393-2.676 0.974-3.919 1.68-0.291 0.165-0.527 0.422-0.787 0.636zM41.884 17.147c0.083-0.097 0.148-0.138 0.153-0.183 0.134-1.421-0.016-2.829-0.21-4.233-0.010-0.071-0.107-0.172-0.174-0.18-0.073-0.010-0.187 0.051-0.232 0.117-0.073 0.104-0.118 0.225-0.132 0.352-0.073 1.158 0.003 2.321 0.226 3.46 0.044 0.23 0.234 0.432 0.367 0.668zM11.212 13.227c0.537-0.206 0.618-0.578 0.675-0.915 0.14-0.82 0.491-1.61 0.375-2.477-0.562 1.035-1.060 2.083-1.051 3.392zM24.219 31.234c-1.205-0.535-1.532-0.591-2.604-0.441 0.455 0.173 0.864 0.448 1.275 0.452 0.429 0.006 0.893 0.534 1.329-0.011z"></path>
<path d="M26.704 20.593c-0.824-0.015-1.39-0.361-1.809-1.030-0.39-0.624-1.040-0.947-1.634-1.332-0.75-0.484-1.36-1.031-1.533-2.012-0.12-0.665 0.020-1.244 0.289-1.769 0.226-0.439 0.629-0.847 1.053-1.108 0.459-0.283 0.84-0.55 1.052-1.073 0.24-0.602 0.845-0.638 1.38-0.746 0.504-0.102 1.017-0.167 1.514-0.295 0.68-0.174 1.297-0.12 1.794 0.411 0.384 0.412 0.832 0.708 1.332 0.958 0.52 0.26 0.691 0.564 0.529 1.107-0.111 0.369-0.004 0.62 0.133 0.914 0.15 0.321 0.303 0.647 0.406 0.986 0.342 1.128-0.052 2.077-1.106 2.58-0.653 0.311-1.154 0.726-1.316 1.456-0.065 0.294-0.248 0.461-0.506 0.537-0.521 0.153-1.050 0.28-1.576 0.417zM30.162 15.864c0.017-1.987-1.484-3.576-3.435-3.579-1.751 0-3.512 1.189-3.58 3.469-0.055 1.824 1.459 3.524 3.432 3.53 2.403 0.012 3.536-1.663 3.583-3.42zM23.128 17.764c0-0.255 0.024-0.385-0.004-0.503-0.259-1.079-0.427-2.148 0.16-3.188 0.042-0.075-0.055-0.229-0.088-0.346-0.115 0.037-0.254 0.045-0.341 0.117-0.97 0.799-1.402 2.718 0.273 3.92zM26.73 11.787c0.406 0.149 0.637 0.255 0.88 0.321 0.894 0.237 1.656 0.664 2.187 1.451 0.105 0.155 0.24 0.385 0.44 0.209 0.106-0.094 0.141-0.382 0.080-0.526-0.083-0.191-0.271-0.43-0.451-0.468-0.491-0.103-0.76-0.46-1.080-0.771-0.538-0.519-1.139-0.681-2.055-0.215zM26.674 19.609l-0.012-0.075c-0.258 0-0.517-0.022-0.771 0.009-0.13 0.016-0.249 0.127-0.372 0.195 0.112 0.1 0.21 0.257 0.34 0.29 0.693 0.175 1.391 0.213 2.074-0.055 0.117-0.046 0.247-0.106 0.32-0.201 0.065-0.080 0.086-0.223 0.073-0.331-0.005-0.040-0.167-0.101-0.247-0.088-0.469 0.074-0.936 0.167-1.402 0.254l-0.002 0.001zM30.217 17.571c0.48-0.089 0.694-0.361 0.722-0.779 0.021-0.352 0.016-0.705-0.015-1.056-0.008-0.093-0.136-0.175-0.21-0.263-0.107 0.101-0.323 0.238-0.304 0.299 0.195 0.609-0.212 1.155-0.194 1.798v0.001z"></path>
<path d="M34.606 20.323c-0.028 0.014-0.139 0.108-0.259 0.12-0.11 0.013-0.27-0.024-0.337-0.101-0.341-0.386-0.672-0.783-0.977-1.199-0.080-0.109-0.113-0.401-0.067-0.426 0.15-0.083 0.443-0.17 0.508-0.098 0.386 0.427 0.725 0.897 1.074 1.357 0.034 0.046 0.024 0.125 0.059 0.346z"></path>
<path d="M18.269 23.668c0.178 0.014 0.531 0.025 0.874 0.084 0.086 0.015 0.2 0.183 0.2 0.283s-0.099 0.274-0.184 0.295c-0.668 0.166-1.332 0.207-1.924-0.241-0.033-0.031-0.059-0.070-0.076-0.112s-0.023-0.089-0.018-0.134c0.013-0.067 0.116-0.16 0.186-0.165 0.256-0.022 0.513-0.010 0.942-0.010z"></path>
<path d="M39.197 9.562l0.253 0.139c-0.072 0.129-0.116 0.336-0.22 0.373-0.481 0.177-0.974 0.319-1.476 0.423-0.144 0.028-0.354-0.114-0.487-0.231-0.154-0.136-0.062-0.431 0.132-0.461 0.569-0.088 1.142-0.155 1.799-0.242z"></path>
<path d="M22.198 26.541c0.267 0.125 0.491 0.16 0.6 0.294 0.299 0.372 0.572 0.764 0.819 1.174 0.12 0.195 0.010 0.406-0.192 0.462-0.111 0.031-0.311-0.060-0.393-0.16-0.326-0.394-0.628-0.807-0.905-1.238-0.064-0.102 0.035-0.308 0.071-0.532z"></path>
<path d="M32.679 11.018c0.017-0.114 0-0.244 0.053-0.294 0.072-0.066 0.226-0.12 0.3-0.085 0.101 0.049 0.167 0.182 0.236 0.286 0.194 0.291 0.385 0.584 0.569 0.882 0.082 0.134 0.193 0.276 0.2 0.42 0.008 0.133-0.073 0.306-0.173 0.398-0.056 0.051-0.285 0.018-0.341-0.053-0.37-0.471-0.813-0.913-0.845-1.554z"></path>
<path d="M33.828 6.010c-0.080 0.481-0.112 0.836-0.205 1.175-0.058 0.183-0.17 0.345-0.32 0.465-0.106 0.086-0.291 0.073-0.44 0.105-0.012-0.14-0.056-0.286-0.030-0.419 0.078-0.41 0.182-0.815 0.276-1.222 0.007-0.032 0.005-0.065 0.014-0.096 0.074-0.245 0.233-0.432 0.487-0.331 0.128 0.051 0.188 0.276 0.218 0.323z"></path>
<path d="M26.934 9.141c0.225 0.028 0.515 0.043 0.793 0.111 0.095 0.023 0.235 0.194 0.218 0.268-0.029 0.132-0.138 0.306-0.254 0.345-0.183 0.057-0.379 0.058-0.563 0.003-0.32-0.102-0.618-0.136-0.937-0.002-0.21 0.088-0.406-0.004-0.462-0.214-0.075-0.281 0.136-0.417 0.372-0.456 0.252-0.042 0.512-0.035 0.833-0.054z"></path>
<path d="M31.921 22.97c-0.091 0.398-0.16 0.748-0.258 1.089-0.019 0.067-0.16 0.157-0.219 0.142-0.106-0.026-0.256-0.11-0.278-0.198-0.048-0.189-0.053-0.386-0.016-0.577 0.075-0.35 0.149-0.682 0.008-1.039-0.067-0.171-0.048-0.445 0.211-0.444 0.14 0 0.34 0.173 0.403 0.317 0.102 0.229 0.109 0.499 0.148 0.71z"></path>
<path d="M27.986 22.868c-0.052 0.093-0.077 0.204-0.146 0.251-0.421 0.291-0.843 0.584-1.286 0.838-0.113 0.065-0.312 0.025-0.456-0.018-0.212-0.063-0.256-0.342-0.080-0.455 0.485-0.312 0.972-0.621 1.472-0.908 0.080-0.046 0.24 0.004 0.343 0.055 0.070 0.035 0.1 0.149 0.153 0.237z"></path>
<path d="M22.621 4.155c0.068 0.040 0.197 0.075 0.214 0.139 0.167 0.618 0.328 1.238 0.461 1.864 0.037 0.174-0.192 0.27-0.346 0.167-0.483-0.327-0.785-1.536-0.503-2.042 0.029-0.050 0.1-0.075 0.173-0.128z"></path>
<path d="M28.596 5.911c-0.146-0.098-0.303-0.147-0.324-0.231-0.023-0.091 0.052-0.247 0.134-0.321 0.355-0.318 0.726-0.617 1.112-0.897 0.13-0.092 0.4-0.157 0.5-0.085 0.236 0.166 0.112 0.401-0.052 0.573-0.221 0.231-0.44 0.475-0.694 0.662-0.195 0.141-0.445 0.201-0.675 0.299z"></path>
<path d="M19.403 9.177l-0.354 0.335c-0.101-0.109-0.25-0.201-0.293-0.331-0.17-0.512-0.312-1.033-0.446-1.555-0.018-0.072 0.040-0.219 0.1-0.243 0.098-0.040 0.259-0.056 0.334 0 0.147 0.109 0.314 0.254 0.362 0.418 0.126 0.425 0.192 0.87 0.297 1.377z"></path>
<path d="M15.533 17.757c-0.324 0.596-0.571 1.207-1.175 1.533-0.102 0.055-0.326-0.015-0.435-0.102-0.185-0.147 0-0.27 0.090-0.395 0.284-0.392 0.545-0.8 0.847-1.177 0.078-0.097 0.275-0.144 0.409-0.131 0.091 0.008 0.166 0.164 0.264 0.272z"></path>
<path d="M19.196 17.808c0.169 0.098 0.292 0.128 0.315 0.192 0.038 0.106 0.057 0.272 0 0.346-0.093 0.117-0.252 0.185-0.388 0.263-0.355 0.204-0.705 0.42-1.073 0.594-0.112 0.053-0.316 0.037-0.416-0.034-0.206-0.147-0.134-0.383 0.032-0.487 0.506-0.318 1.039-0.596 1.531-0.873z"></path>
<path d="M37.53 15.106c-0.13 0.295-0.313 0.74-0.531 1.167-0.034 0.066-0.244 0.102-0.333 0.063-0.083-0.037-0.173-0.205-0.156-0.295 0.087-0.475 0.184-0.952 0.33-1.411 0.045-0.14 0.247-0.267 0.403-0.314 0.058-0.017 0.208 0.201 0.28 0.334 0.041 0.075 0.007 0.191 0.007 0.457z"></path>
<path d="M15.431 11.562c0.574 0.517 0.505 1.218 0.569 1.866 0.012 0.12-0.137 0.292-0.256 0.379-0.062 0.046-0.316-0.028-0.322-0.070-0.090-0.654-0.16-1.312-0.216-1.971-0.004-0.056 0.13-0.125 0.225-0.205z"></path>
<path d="M28.841 27.56c0.096 0.026 0.191 0.057 0.284 0.093 0.345 0.16 0.691 0.317 1.028 0.493 0.16 0.083 0.32 0.188 0.435 0.321 0.132 0.154-0.019 0.451-0.204 0.41-0.625-0.136-1.236-0.325-1.704-0.794-0.069-0.069-0.068-0.243-0.045-0.358 0.013-0.065 0.134-0.11 0.207-0.165z"></path>
<path d="M21.229 11.751c0.033 0.104 0.147 0.265 0.107 0.366-0.21 0.536-0.453 1.059-0.701 1.578-0.030 0.064-0.16 0.12-0.237 0.11-0.067-0.008-0.16-0.103-0.178-0.175-0.131-0.579 0.282-1.615 0.743-1.876 0.048-0.027 0.124-0.004 0.265-0.004z"></path>
<path d="M39.113 20.539c-0.072-0.046-0.222-0.102-0.3-0.209-0.031-0.043 0.070-0.239 0.156-0.301 0.385-0.281 0.777-0.549 1.187-0.789 0.11-0.065 0.34-0.069 0.421 0.003 0.075 0.067 0.086 0.321 0.018 0.414-0.343 0.48-0.776 0.846-1.483 0.883z"></path>
<path d="M36.737 24.67c-0.297-0.031-0.426-0.034-0.549-0.062-0.052-0.012-0.13-0.074-0.131-0.114-0.006-0.091 0.018-0.182 0.068-0.259 0.064-0.073 0.147-0.125 0.24-0.15 0.457-0.138 0.915-0.276 1.38-0.388 0.101-0.024 0.313 0.043 0.326 0.1 0.030 0.137-0.006 0.303-0.060 0.441-0.028 0.073-0.142 0.134-0.228 0.16-0.397 0.11-0.797 0.207-1.045 0.272z"></path>
<path d="M22.962 21.355c-0.033 0.14-0.086 0.45-0.189 0.742-0.026 0.073-0.226 0.142-0.318 0.116s-0.2-0.179-0.197-0.274c0.010-0.541 0.036-1.083 0.091-1.622 0.012-0.118 0.16-0.221 0.246-0.331 0.102 0.109 0.268 0.205 0.294 0.329 0.058 0.279 0.046 0.573 0.072 1.039z"></path>
<path d="M44.4 4.422c0-1.146 0.276-2.016 0.829-2.608 0.559-0.598 1.275-0.898 2.148-0.898s1.567 0.258 2.081 0.775c0.521 0.516 0.782 1.342 0.782 2.475s-0.276 1.99-0.829 2.57c-0.553 0.579-1.29 0.869-2.213 0.869-0.797 0-1.45-0.23-1.959-0.69-0.264-0.239-0.471-0.57-0.622-0.992-0.144-0.428-0.217-0.929-0.217-1.502zM47.348 1.012c-0.634 0-1.155 0.283-1.563 0.85-0.402 0.567-0.603 1.398-0.603 2.494s0.192 1.896 0.575 2.4c0.383 0.504 0.892 0.756 1.526 0.756 0.64 0 1.161-0.283 1.563-0.85 0.408-0.573 0.612-1.401 0.612-2.485 0-1.090-0.194-1.89-0.584-2.4-0.383-0.51-0.892-0.765-1.526-0.765z"></path>
<path d="M51.869 7.569h-0.782v-6.614h0.782v3.042h3.061v-3.042h0.782v6.614h-0.782v-3.477h-3.061v3.477z"></path>
<path d="M59.73 7.569h-0.123l0.819-6.614h0.311l1.978 6.113 1.969-6.113h0.311l0.819 6.614h-0.782l-0.65-5.291-1.705 5.291h-0.594l-1.724-5.225-0.631 5.225z"></path>
<path d="M71.032 0.955c0.119 0.12 0.179 0.274 0.179 0.463 0 0.157-0.035 0.318-0.104 0.482l-1.686 3.43v2.239h-0.782v-2.031l-1.884-4.582h0.801l1.799 4.261 1.639-3.316c0.069-0.157 0.104-0.321 0.104-0.491s-0.047-0.302-0.141-0.397l0.075-0.057z"></path>
<path d="M1.328 9.306c0.487-0.022 0.963-0.033 1.427-0.033 0.476 0 0.974 0.050 1.494 0.15 0.531 0.1 1.051 0.289 1.56 0.566 0.52 0.266 0.957 0.616 1.311 1.049 0.365 0.422 0.658 0.982 0.88 1.682s0.332 1.548 0.332 2.547c0 0.999-0.166 1.898-0.498 2.697-0.321 0.788-0.763 1.393-1.328 1.815-1.095 0.821-2.418 1.232-3.967 1.232-0.542 0-1.112-0.022-1.71-0.067h-0.83v-11.638h1.328zM1.378 20.811c0.232 0.022 0.526 0.033 0.88 0.033s0.62-0.006 0.797-0.017c0.177-0.011 0.42-0.055 0.73-0.133 0.31-0.089 0.598-0.205 0.863-0.35s0.542-0.355 0.83-0.633c0.299-0.289 0.553-0.627 0.763-1.016 0.476-0.91 0.714-2.098 0.714-3.563 0-1.043-0.127-1.942-0.382-2.697-0.255-0.766-0.548-1.332-0.88-1.698-0.321-0.366-0.714-0.655-1.178-0.866-0.465-0.222-0.835-0.35-1.112-0.383s-0.598-0.050-0.963-0.050c-0.365 0-0.719 0.017-1.062 0.050v11.321z"></path>
<path d="M44.67 20.944h-0.216v-11.654h0.564l6.905 10.772v-10.772h0.216v11.654h-1.212l-6.258-9.656v9.656z"></path>
<path d="M62.359 9.29h0.216v6.66c0 1.743-0.343 3.025-1.029 3.846-0.686 0.81-1.582 1.215-2.689 1.215-0.697 0-1.289-0.061-1.776-0.183-0.487-0.133-0.946-0.372-1.378-0.716-0.885-0.688-1.328-2.076-1.328-4.162v-6.66h1.378v6.643c0 2.020 0.304 3.369 0.913 4.046 0.31 0.333 0.631 0.561 0.963 0.683 0.343 0.122 0.752 0.183 1.228 0.183 1.062 0 1.909-0.388 2.539-1.165 0.642-0.788 0.963-2.037 0.963-3.746v-6.643z"></path>
<path d="M68.237 20.944h-1.378v-11.488h-2.871v-0.166h7.137v0.166h-2.888v11.488z"></path>
</svg>
