<!-- Generated by IcoMoon.io -->
<svg version="1.1" xmlns="http://www.w3.org/2000/svg" width="35" height="32" viewBox="0 0 35 32">
<title>people</title>
<path fill="#674d40" d="M11.847 0c-3.678 0-6.674 2.996-6.674 6.674s2.996 6.674 6.674 6.674c3.678 0 6.674-2.996 6.674-6.674s-2.996-6.674-6.674-6.674zM11.847 12.229c-3.071 0-5.562-2.498-5.562-5.562s2.498-5.562 5.562-5.562c3.071 0 5.562 2.498 5.562 5.562s-2.498 5.562-5.562 5.562z"></path>
<path fill="#674d40" d="M25.516 2.771c-2.764 0-5.009 2.245-5.009 5.009s2.245 5.009 5.009 5.009c2.764 0 5.009-2.245 5.009-5.009s-2.245-5.009-5.009-5.009zM25.516 11.683c-2.15 0-3.897-1.747-3.897-3.897s1.747-3.897 3.897-3.897c2.15 0 3.897 1.747 3.897 3.897s-1.747 3.897-3.897 3.897z"></path>
<path fill="#674d40" d="M34.476 20.131c-0.505-3.044-2.395-5.609-5.616-6.954 0 0-1.426 1.078-3.344 1.044-2.095-0.041-3.344-1.044-3.344-1.044s-1.556 0.58-2.811 1.788c-1.16-1.030-3.119-1.87-3.119-1.87s-1.795 1.365-4.402 1.344c-2.736-0.020-4.388-1.344-4.388-1.344s-5.916 2.034-7.165 8.933c0 0-1.338 3.658 1.761 9.124h19.606c0 0 1.392-2.423 1.638-3.897h9.752c2.395-3.63 1.433-7.124 1.433-7.124zM20.964 30.040h-18.227c-2.382-4.524-1.351-7.827-1.351-7.827 0.58-3.46 2.805-6.381 5.985-7.861 2.73 1.604 6.23 1.604 8.96 0 3.18 1.481 5.405 4.401 5.985 7.861-0.007 0 0.983 4.067-1.351 7.827zM32.394 26.143h-8.878c0.341-1.965-0.109-4.115-0.109-4.115-0.403-2.429-1.549-4.62-3.228-6.312 0.573-0.519 1.208-0.949 1.904-1.283 2.095 1.201 4.763 1.201 6.858 0 2.354 1.126 4.006 3.303 4.436 5.882 0 0 0.812 2.757-0.983 5.828z"></path>
</svg>
